<svg fill="#000000" viewBox="0 0 24 24" id="moon-alt" xmlns="http://www.w3.org/2000/svg"
    class="icon multi-color">
    <g id="SVGRepo_bgCarrier" stroke-width="0"></g>
    <g id="SVGRepo_tracerCarrier" stroke-linecap="round" stroke-linejoin="round"></g>
    <g id="SVGRepo_iconCarrier">
        <title style="stroke-width: 2;">moon alt</title>
        <path id="secondary-fill"
            d="M21,12a9,9,0,0,1-9,9,8.91,8.91,0,0,1-6.38-2.67A8.64,8.64,0,0,0,9,19,9,9,0,0,0,15.38,3.66,9,9,0,0,1,21,12Z"
            style="fill: #2ca9bc; stroke-width: 2;"></path>
        <path id="primary-stroke"
            d="M21,12A9,9,0,0,1,3.25,14.13,6.9,6.9,0,0,0,8,16,7,7,0,0,0,11.61,3H12A9,9,0,0,1,21,12Z"
            style="fill: none; stroke: #000000; stroke-linecap: round; stroke-linejoin: round; stroke-width: 2;"></path>
    </g>
</svg>